<svg width="109" height="48" viewBox="0 0 109 48" fill="none" xmlns="http://www.w3.org/2000/svg">
<path d="M33.812 39.9388H8C8.20908 38.7408 8.39868 37.5963 8.60861 36.4553C9.5905 31.1278 10.5766 25.8003 11.5653 20.4746C11.9098 18.618 12.2476 16.7607 12.6259 14.9108C12.736 14.3746 12.6513 13.9859 12.2518 13.5871C10.3506 11.6929 10.3887 11.6895 10.9169 9.08153C11.0837 8.25882 11.4239 7.98319 12.2882 8.00078C15.057 8.05859 17.8283 8.04184 20.5979 8.00916C21.314 8.00078 21.4274 8.22112 21.2971 8.87794C20.8468 11.1534 20.4574 13.4414 20.0248 15.8299H38.2949C36.7907 23.9178 35.3077 31.8902 33.8112 39.938L33.812 39.9388ZM16.8785 32.8495C16.975 32.9307 16.9954 32.9642 17.0165 32.9642C20.3347 32.9869 23.6519 33.0145 26.9701 33.0036C27.1351 33.0036 27.4077 32.6936 27.4466 32.4934C28.0078 29.6223 28.5403 26.7454 29.0693 23.8684C29.1311 23.5333 29.1302 23.1873 29.1607 22.8128C28.9347 22.781 28.8018 22.7458 28.6689 22.7458C25.5683 22.7416 22.4677 22.7533 19.3671 22.7307C18.7941 22.7265 18.6781 23.0407 18.5969 23.4788C18.3074 25.038 17.9984 26.5937 17.7115 28.1537C17.4211 29.7337 17.1486 31.3172 16.8769 32.8495H16.8785Z" fill="#F9D729"/>
<path d="M56.7317 39.9387C57.1592 37.6306 57.5494 35.5093 57.9447 33.3889C58.5364 30.2145 59.1408 27.0419 59.7206 23.865C59.8975 22.8973 59.702 22.6845 58.6904 22.682C55.6982 22.6737 52.7051 22.6921 49.7129 22.667C49.1652 22.6628 48.9485 22.8219 48.8512 23.3665C48.2925 26.4914 47.6932 29.6097 47.1117 32.7313C46.7054 34.9112 46.3236 37.0953 45.8809 39.2676C45.8284 39.5232 45.4636 39.9027 45.2359 39.9077C43.0757 39.9555 40.9139 39.9362 38.7529 39.9278C38.6267 39.9278 38.5006 39.86 38.2949 39.8005C38.614 38.0529 38.9238 36.3371 39.2421 34.6221C40.3713 28.5407 41.5089 22.4617 42.6212 16.3769C42.7025 15.9337 42.8582 15.7779 43.306 15.7787C49.4852 15.7921 55.6643 15.7318 61.8418 15.8214C65.5282 15.875 68.0312 19.1617 67.3608 22.889C66.45 27.9534 65.496 33.0094 64.5454 38.0663C64.1924 39.9412 64.173 39.9379 62.1889 39.9379C60.4223 39.9379 58.6566 39.9379 56.7309 39.9379L56.7317 39.9387Z" fill="#F9D729"/>
<path d="M93.3113 39.8725H85.8404C86.1713 38.1065 86.4896 36.42 86.8028 34.7327C87.4664 31.1537 88.136 27.5755 88.7835 23.9932C88.9909 22.8446 88.8335 22.682 87.6628 22.6804C84.7527 22.6762 81.8425 22.7055 78.9332 22.6594C78.1994 22.6477 77.9776 22.9476 77.8642 23.576C76.9144 28.8272 75.952 34.0767 74.9633 39.3213C74.9193 39.5533 74.5867 39.9052 74.3827 39.9094C72.1158 39.9513 69.8473 39.9362 67.4688 39.9362C67.4992 39.4913 67.4874 39.1177 67.5551 38.7591C68.2729 34.9112 69.0085 31.0674 69.728 27.2195C70.3916 23.6681 71.0552 20.1167 71.6824 16.5595C71.7916 15.9421 72.0422 15.7695 72.6609 15.772C78.5913 15.7946 84.5216 15.7712 90.4527 15.7913C94.6588 15.8055 97.2575 19.1826 96.4068 23.2819C95.5942 27.1943 94.9568 31.142 94.2331 35.0729C93.9368 36.6823 93.6168 38.2874 93.3121 39.8734L93.3113 39.8725Z" fill="#F9D729"/>
<path d="M99.9026 36.6396C100.245 37.0074 100.417 37.4657 100.417 38.0136C100.417 38.5615 100.245 39.0164 99.9026 39.3851C99.5598 39.7545 99.09 39.9388 98.4924 39.9388C97.8948 39.9388 97.4301 39.7545 97.0855 39.3851C96.741 39.0156 96.5684 38.5582 96.5684 38.0136C96.5684 37.469 96.7402 37.0066 97.0855 36.6396C97.4301 36.2719 97.899 36.0884 98.4924 36.0884C99.0857 36.0884 99.5598 36.2719 99.9026 36.6396ZM96.973 38.0036C96.973 38.4576 97.1084 38.833 97.381 39.1304C97.6527 39.4278 98.0234 39.5761 98.4924 39.5761C98.9613 39.5761 99.3329 39.4278 99.6063 39.1304C99.8797 38.833 100.017 38.4593 100.017 38.0094C100.017 37.5595 99.8806 37.18 99.6089 36.8826C99.3371 36.5852 98.9647 36.4369 98.4924 36.4369C98.02 36.4369 97.6485 36.5852 97.3784 36.8826C97.1084 37.18 96.973 37.557 96.973 38.0144V38.0036ZM98.8597 38.2457C99.0409 38.2138 99.178 38.1309 99.2703 37.9952C99.3625 37.8595 99.4006 37.7179 99.3845 37.5704C99.3685 37.423 99.2974 37.2898 99.1712 37.1725C99.0451 37.0552 98.8792 36.9957 98.6727 36.9957H97.7559V38.9745H98.1233V38.2884H98.4695L99.0239 38.9745H99.4294V38.9008L98.8589 38.2415V38.2465L98.8597 38.2457ZM98.6735 37.3384C98.759 37.3384 98.831 37.3601 98.8894 37.4045C98.9478 37.4489 98.9833 37.5017 98.996 37.5654C99.0087 37.6291 99.0079 37.6911 98.9935 37.7531C98.9791 37.8151 98.9427 37.867 98.8843 37.9114C98.8259 37.9558 98.7514 37.9776 98.6634 37.9776H98.125V37.3392H98.6744L98.6735 37.3384Z" fill="#F9D729"/>
</svg>
