<svg width="76" height="55" viewBox="0 0 76 55" fill="none" xmlns="http://www.w3.org/2000/svg">
<g id="Layer_1" clip-path="url(#clip0_1_7096)">
<path id="Vector" d="M20.6348 0.00512695L29.3126 4.62701L29.3348 24.3127C32.1455 25.8106 34.9406 27.337 37.7856 28.7791L37.893 28.7567L46.3815 24.2639L46.3793 20.6979L37.8964 16.1817H54.9287V29.3258L37.7856 38.3419C32.0458 35.3389 26.3469 32.2678 20.6348 29.2211V0.00512695Z" fill="#FDFDFD" fill-opacity="0.5"/>
<path id="Vector_2" d="M46.3887 4.47043C46.3887 4.47043 46.4795 4.47552 46.5238 4.44909C46.5924 4.40844 46.598 4.33324 46.6301 4.31393C46.6711 4.28853 46.7597 4.30072 46.8272 4.26414C47.4529 3.92268 47.9745 3.60561 48.5814 3.29464C48.6434 3.26314 48.7464 3.27431 48.7929 3.25196C48.8461 3.22553 48.8084 3.14423 48.825 3.12899C48.8416 3.11476 49.0166 3.12493 49.0975 3.10257C49.3378 3.0355 49.67 2.81904 49.8693 2.70522C51.3212 1.88003 52.8096 1.05179 54.298 0.291635C54.4408 0.218465 54.6258 0.164604 54.7576 0.0894021C54.793 0.0690772 54.7886 0.0111513 54.793 0.00911877C54.8838 -0.0427097 55.0101 0.152409 54.9757 0.234725L54.9492 13.4855C54.9392 13.5059 54.8661 13.5709 54.8583 13.5709H46.4573C46.4573 13.5709 46.3887 13.512 46.3887 13.5079V4.47043Z" fill="white" fill-opacity="0.5"/>
<path id="Vector_3" d="M17.4038 40.0015L19.4016 43.7504L21.3751 40.0015H22.8901V47.0369H21.3751V43.1823C21.3751 43.1508 21.4792 43.0776 21.3297 43.035L19.9753 45.5634C19.8922 45.6315 18.9332 45.6304 18.8723 45.5634L17.5301 43.0898L17.4271 43.036V47.0379H15.9121V40.0025H17.4038V40.0015Z" fill="#FDFDFD" fill-opacity="0.5"/>
<path id="Vector_4" d="M58.7431 44.2148V40.0015H60.258V47.0369H58.8804L56.5758 43.6955L55.8958 42.7819V47.0369H54.3809V40.0015H55.7353L58.7431 44.2148Z" fill="#FDFDFD" fill-opacity="0.5"/>
<path id="Vector_5" d="M34.7566 40.0015C35.0722 40.0361 35.6492 40.2841 35.9028 40.466C37.1708 41.3735 37.0058 43.5035 35.3756 43.9618V44.0228L37.0279 47.036H35.2837L33.2183 43.0757H34.297C34.3424 43.0757 34.6215 42.9924 34.6824 42.9659C35.4111 42.6519 35.4033 41.6184 34.6868 41.3267C34.6425 41.3084 34.3612 41.221 34.3424 41.221H32.7122V47.035H31.1973V40.0625C31.1973 40.0625 31.2615 39.9995 31.2659 39.9995H34.7555L34.7566 40.0015Z" fill="#FDFDFD" fill-opacity="0.5"/>
<path id="Vector_6" d="M7.74025 42.1925H6.22528C6.02483 40.9445 3.98493 40.7657 3.62834 42.0217C3.45336 42.6406 3.49434 44.0796 3.56743 44.7361C3.66489 45.601 4.40465 46.0288 5.31607 45.8032C6.08131 45.6142 6.31719 44.9241 6.27068 44.2565H4.84763V43.1193H7.71699C7.74911 43.1193 7.77901 43.1894 7.78565 43.225C7.82663 43.4272 7.79894 43.9628 7.78787 44.1955C7.73693 45.2321 7.54534 46.0847 6.54311 46.6762C5.20422 47.4658 2.99267 47.1375 2.30052 45.7321C1.93507 44.9882 1.93729 42.1589 2.25623 41.3937C2.54637 40.6955 3.41793 40.1153 4.20421 39.9791C5.9451 39.6783 7.53316 40.5248 7.74136 42.1925H7.74025Z" fill="#FDFDFD" fill-opacity="0.5"/>
<path id="Vector_7" d="M29.775 40.0015V41.223H26.1947V42.8663H29.2246V44.0878H26.2633C26.2633 44.0878 26.1947 44.1468 26.1947 44.1508V45.8144H29.775V47.0359H24.6797V40.0005H29.775V40.0015Z" fill="#FDFDFD" fill-opacity="0.5"/>
<path id="Vector_8" d="M76.5558 40.0015V41.223H73.0208V42.8663H76.0508V44.0878H73.0208V45.8154H76.5558V47.0369H71.5059V40.0015H76.5558Z" fill="#FDFDFD" fill-opacity="0.5"/>
<path id="Vector_9" d="M48.5529 40.0014V44.7412C48.5529 44.9546 48.7611 45.3387 48.9195 45.5003C49.6371 46.2381 51.2163 45.7574 51.2163 44.7829V39.9587C51.6017 40.0116 51.9982 40.0126 52.3891 40.0024C52.4655 40.0004 52.7313 39.915 52.7313 40.0217V44.8662C52.7313 47.1771 48.7445 47.918 47.4433 45.9698C47.2993 45.7534 47.0391 45.1487 47.0391 44.9089V40.0217C47.0391 39.915 47.3093 40.0014 47.3813 40.0024C47.7711 40.0116 48.1642 39.9913 48.554 40.0004L48.5529 40.0014Z" fill="#FDFDFD" fill-opacity="0.5"/>
<path id="Vector_10" d="M40.2333 39.9303C41.2145 39.85 42.3562 40.0533 43.0395 40.7454C43.0539 40.8195 42.2543 41.4913 42.1381 41.599C42.0617 41.6173 41.7604 41.3744 41.6298 41.3195C41.0096 41.0594 39.5887 40.9832 39.3894 41.7687C39.0982 42.9191 40.8047 42.8104 41.5733 42.9719C42.7616 43.2219 43.364 43.9841 43.2654 45.1152C43.0827 47.2127 40.076 47.4759 38.4193 46.7503C38.2687 46.6843 37.623 46.3032 37.623 46.1741C37.623 46.1142 38.4658 45.3317 38.5289 45.3164C38.6541 45.287 38.8634 45.4912 38.9874 45.5552C39.8556 45.9993 42.024 46.1406 41.7449 44.7514C41.6076 44.0675 40.2421 44.1162 39.6353 43.9912C38.6795 43.7941 37.9974 43.3398 37.8999 42.3815C37.7548 40.9425 38.7106 40.0553 40.2311 39.9303H40.2333Z" fill="#FDFDFD" fill-opacity="0.5"/>
<path id="Vector_11" d="M14.9933 47.0369H13.3864C13.2624 46.6131 13.1328 46.1548 12.9058 45.7717C12.1539 45.414 11.4285 44.9861 10.6566 44.6762L9.80611 47.0359H8.19922L10.9977 40.0197C11.1849 40.0065 12.1384 39.9547 12.217 40.0421L14.9933 47.0359V47.0369ZM11.5968 42.1081L10.6777 44.6355H12.5603" fill="#FDFDFD" fill-opacity="0.5"/>
<path id="Vector_12" d="M70.3127 40.0015V41.223H68.2927V47.0369H66.7778V42.0451L68.2008 41.223H64.7578V40.0015H70.3127Z" fill="#FDFDFD" fill-opacity="0.5"/>
<path id="Vector_13" d="M63.5643 40.0015H62.0488V47.0369H63.5643V40.0015Z" fill="#FDFDFD" fill-opacity="0.5"/>
</g>
<defs>
<clipPath id="clip0_1_7096">
<rect width="74.536" height="54.7654" fill="white" transform="translate(0.5)"/>
</clipPath>
</defs>
</svg>
