<svg width="54" height="56" viewBox="0 0 54 56" fill="none" xmlns="http://www.w3.org/2000/svg">
<path d="M46.0232 12H30.3089C29.4753 12 28.6759 12.3371 28.0865 12.9373C27.4971 13.5374 27.166 14.3513 27.166 15.2C27.166 16.0487 27.4971 16.8626 28.0865 17.4627C28.6759 18.0629 29.4753 18.4 30.3089 18.4H46.0232C46.8567 18.4 47.6561 18.0629 48.2455 17.4627C48.8349 16.8626 49.166 16.0487 49.166 15.2C49.166 14.3513 48.8349 13.5374 48.2455 12.9373C47.6561 12.3371 46.8567 12 46.0232 12ZM24.0232 37.6H8.30887C7.47534 37.6 6.67594 37.9371 6.08654 38.5373C5.49714 39.1374 5.16602 39.9513 5.16602 40.8C5.16602 41.6487 5.49714 42.4626 6.08654 43.0627C6.67594 43.6629 7.47534 44 8.30887 44H24.0232C24.8567 44 25.6561 43.6629 26.2455 43.0627C26.8349 42.4626 27.166 41.6487 27.166 40.8C27.166 39.9513 26.8349 39.1374 26.2455 38.5373C25.6561 37.9371 24.8567 37.6 24.0232 37.6ZM46.0232 24.8H8.30887C7.47534 24.8 6.67594 25.1371 6.08654 25.7373C5.49714 26.3374 5.16602 27.1513 5.16602 28C5.16602 28.8487 5.49714 29.6626 6.08654 30.2627C6.67594 30.8629 7.47534 31.2 8.30887 31.2H46.0232C46.8567 31.2 47.6561 30.8629 48.2455 30.2627C48.8349 29.6626 49.166 28.8487 49.166 28C49.166 27.1513 48.8349 26.3374 48.2455 25.7373C47.6561 25.1371 46.8567 24.8 46.0232 24.8Z" fill="white"/>
</svg>
