<svg width="35" height="35" viewBox="0 0 35 35" fill="none" xmlns="http://www.w3.org/2000/svg">
<path fill-rule="evenodd" clip-rule="evenodd" d="M17.5191 21.8106L28.8271 33.1186C29.4271 33.7186 30.2409 34.0557 31.0895 34.0557C31.9381 34.0557 32.7519 33.7186 33.3519 33.1186C33.952 32.5185 34.2891 31.7047 34.2891 30.8561C34.2891 30.0076 33.952 29.1937 33.3519 28.5937L22.0397 17.2858L33.3498 5.97784C33.6468 5.68073 33.8823 5.32804 34.043 4.9399C34.2037 4.55176 34.2863 4.13578 34.2862 3.71571C34.2861 3.29563 34.2033 2.87969 34.0424 2.49163C33.8816 2.10357 33.6459 1.75099 33.3488 1.45402C33.0516 1.15705 32.6989 0.921515 32.3108 0.760851C31.9227 0.600186 31.5067 0.517544 31.0866 0.517643C30.6665 0.517742 30.2506 0.60058 29.8625 0.761427C29.4745 0.922274 29.1219 1.15798 28.8249 1.45509L17.5191 12.763L6.2112 1.45509C5.91628 1.14946 5.56346 0.905623 5.1733 0.737809C4.78314 0.569995 4.36347 0.481563 3.93878 0.477673C3.51408 0.473784 3.09286 0.554514 2.6997 0.715155C2.30653 0.875795 1.9493 1.11313 1.64884 1.41331C1.34838 1.71348 1.11071 2.07049 0.949695 2.46351C0.788684 2.85652 0.707557 3.27766 0.711045 3.70236C0.714534 4.12706 0.80257 4.54682 0.970016 4.93713C1.13746 5.32745 1.38097 5.6805 1.68632 5.9757L12.9985 17.2858L1.68845 28.5958C1.3831 28.891 1.1396 29.2441 0.972149 29.6344C0.804703 30.0247 0.716667 30.4445 0.713178 30.8692C0.709689 31.2939 0.790817 31.715 0.951828 32.108C1.11284 32.501 1.35051 32.8581 1.65097 33.1582C1.95143 33.4584 2.30866 33.6957 2.70183 33.8564C3.09499 34.017 3.51621 34.0978 3.94091 34.0939C4.36561 34.09 4.78528 34.0015 5.17543 33.8337C5.56559 33.6659 5.91842 33.4221 6.21333 33.1165L17.5191 21.8106Z" fill="white"/>
</svg>
