<svg width="121" height="41" viewBox="0 0 121 41" fill="none" xmlns="http://www.w3.org/2000/svg">
<g id="Capa_1" opacity="0.6" clip-path="url(#clip0_1_7088)">
<g id="Group">
<path id="Vector" d="M11.6239 0.307617C5.481 0.307617 0.5 4.85773 0.5 10.4692V30.7537C0.5 36.3652 5.481 40.9154 11.6239 40.9154C17.7668 40.9154 22.7478 36.3652 22.7478 30.7537V10.4692C22.7504 4.85773 17.7694 0.307617 11.6239 0.307617ZM12.6323 31.3993C12.6323 31.907 12.1797 32.3204 11.6239 32.3204C11.0681 32.3204 10.6155 31.907 10.6155 31.3993V9.82611C10.6155 9.31839 11.0681 8.90497 11.6239 8.90497C12.1797 8.90497 12.6323 9.31839 12.6323 9.82611V31.3993Z" fill="white" fill-opacity="0.5"/>
<path id="Vector_2" d="M104.656 0.307617C98.5129 0.307617 93.5319 4.85773 93.5319 10.4692V20.8774L103.647 14.5019V9.82611C103.647 9.31839 104.1 8.90497 104.656 8.90497C105.212 8.90497 105.664 9.31839 105.664 9.82611V15.4642L98.6029 19.9176C96.5624 21.2183 95.2814 22.0766 94.5086 23.3604C93.8151 24.5161 93.5293 25.9135 93.5293 27.7582V30.7537C93.5293 36.3652 98.5103 40.9154 104.653 40.9154C110.796 40.9154 115.777 36.3652 115.777 30.7537V10.4692C115.777 4.85773 110.796 0.307617 104.653 0.307617H104.656ZM104.656 32.3204C104.1 32.3204 103.647 31.907 103.647 31.3993V27.1103C103.647 25.8917 103.981 25.6959 105.032 25.0069L105.664 24.5741V31.3993C105.664 31.907 105.214 32.3204 104.656 32.3204Z" fill="white" fill-opacity="0.5"/>
<path id="Vector_3" d="M69.0714 24.1896C68.9444 24.3589 64.9162 29.7648 64.9162 29.7648C64.9162 29.7648 67.0441 24.8738 67.6899 23.4522C67.7905 23.2322 67.6846 23.0581 67.6158 22.9783C67.494 22.843 67.3008 22.7777 67.0891 22.8284C66.5068 22.9711 65.5858 23.3434 64.5748 23.7496C63.4552 24.1993 60.2131 25.4106 60.2131 25.4106C60.2131 25.4106 62.8412 23.6722 63.757 23.0146C64.1354 22.7438 64.715 22.3328 65.1359 21.9726L59.1756 22.0185L59.1518 25.8965V31.3291C59.1518 31.8392 58.6992 32.2502 58.1434 32.2502C57.5876 32.2502 57.135 31.8368 57.135 31.3291V20.0964H62.9974L65.1147 20.0457C64.6965 19.6903 64.1301 19.2889 63.7596 19.023C62.8439 18.3678 60.2157 16.627 60.2157 16.627C60.2157 16.627 63.4552 17.8359 64.5774 18.288C65.5884 18.6942 66.5095 19.0689 67.0917 19.2091C67.3035 19.2599 67.4967 19.1946 67.6184 19.0592C67.6899 18.9819 67.7931 18.8054 67.6925 18.5854C67.0467 17.1638 64.9188 12.2728 64.9188 12.2728C64.9188 12.2728 68.947 17.6787 69.0741 17.848C69.1297 17.9229 69.1932 18.0172 69.2673 18.1067V10.4619C69.2673 4.85041 64.2863 0.300293 58.1434 0.300293C52.0005 0.300293 47.0195 4.85041 47.0195 10.4619V30.7464C47.0195 36.3579 52.0005 40.908 58.1434 40.908C64.2863 40.908 69.2673 36.3579 69.2673 30.7464V23.9212C69.1905 24.0107 69.1297 24.105 69.0741 24.1799L69.0714 24.1896ZM57.1324 9.82604C57.1324 9.31832 57.585 8.9049 58.1408 8.9049C58.6966 8.9049 59.1491 9.31832 59.1491 9.82604V14.5019H57.1324V9.82604Z" fill="white" fill-opacity="0.5"/>
<path id="Vector_4" d="M81.3993 0.310303C75.2537 0.310303 70.2754 4.86042 70.2754 10.4719V18.1143C70.3521 18.0248 70.413 17.9305 70.4686 17.8556C70.5956 17.6863 74.6238 12.2803 74.6238 12.2803C74.6238 12.2803 72.4959 17.1714 71.8501 18.593C71.7496 18.813 71.8554 18.9871 71.9242 19.0668C72.046 19.2022 72.2392 19.2675 72.4509 19.2167C73.0332 19.0741 73.9542 18.7018 74.9653 18.2956C76.0848 17.8459 79.3269 16.6346 79.3269 16.6346C79.3269 16.6346 76.6988 18.373 75.7831 19.0306C75.2114 19.4392 74.1871 20.1645 73.941 20.5513C73.8431 20.706 73.7954 20.8584 73.7954 21.0276C73.7954 21.1968 73.8431 21.3491 73.941 21.5039C74.1871 21.8907 75.214 22.616 75.7831 23.0246C76.6988 23.6798 79.3269 25.4206 79.3269 25.4206C80.0151 25.8557 80.5206 26.1749 80.5206 26.1749C82.5453 27.5046 82.4076 27.8552 82.4076 31.0369V31.4092C82.4076 31.9169 81.9551 32.3304 81.3993 32.3304C80.8435 32.3304 80.3909 31.9169 80.3909 31.4092V28.3315L71.9242 22.9908C71.8554 23.0706 71.7522 23.2446 71.8528 23.4622C72.4986 24.8838 74.6265 29.7748 74.6265 29.7748C74.6265 29.7748 70.5983 24.3664 70.4712 24.1996C70.4157 24.1247 70.3521 24.0304 70.278 23.9409V30.7685C70.278 36.38 75.259 40.9301 81.4019 40.9301C87.5448 40.9301 92.5258 36.38 92.5258 30.7685V28.2807C92.5258 23.1213 91.0066 22.2896 87.566 20.0001L82.6432 16.8982C80.5682 15.5297 80.3935 15.022 80.3935 11.9951V9.83605C80.3935 9.32833 80.8435 8.91491 81.4019 8.91491C81.9604 8.91491 82.4129 9.32592 82.4129 9.83363V14.5119L92.5284 20.8874V10.4792C92.5284 4.86767 87.5474 0.317556 81.4046 0.317556L81.3993 0.310303Z" fill="white" fill-opacity="0.5"/>
<path id="Vector_5" d="M34.8817 0.307617C28.7388 0.307617 23.7578 4.85773 23.7578 10.4692V30.7537C23.7578 36.3652 28.7388 40.9154 34.8817 40.9154C41.0246 40.9154 46.0056 36.3652 46.0056 30.7537V21.9412H35.8901V31.3969C35.8901 31.9046 35.4375 32.318 34.8817 32.318C34.3259 32.318 33.8733 31.9046 33.8733 31.3969V9.82611C33.8733 9.31839 34.3259 8.90497 34.8817 8.90497C35.4375 8.90497 35.8901 9.31839 35.8901 9.82611V20.1013H46.0056V10.4716C46.0056 4.86015 41.0246 0.310035 34.8817 0.310035V0.307617Z" fill="white" fill-opacity="0.5"/>
</g>
<path id="Vector_6" d="M120.239 35.831C120.53 36.1018 120.697 36.4644 120.697 36.8513C120.697 37.2381 120.533 37.6056 120.234 37.8715C119.921 38.1496 119.519 38.3019 119.106 38.3019C118.693 38.3019 118.291 38.1496 117.987 37.8667C117.688 37.5887 117.523 37.2333 117.523 36.8513C117.523 36.4693 117.695 36.0969 118.005 35.8116C118.296 35.5409 118.68 35.4006 119.106 35.4006C119.532 35.4006 119.935 35.5505 120.239 35.831ZM120.093 35.964C119.829 35.7174 119.49 35.5892 119.109 35.5892C118.728 35.5892 118.399 35.7149 118.148 35.947C117.878 36.1961 117.73 36.52 117.73 36.8488C117.73 37.1776 117.875 37.4895 118.135 37.7313C118.394 37.9731 118.744 38.106 119.096 38.106C119.471 38.106 119.81 37.9779 120.083 37.7361C120.342 37.5065 120.485 37.197 120.485 36.8609C120.485 36.5249 120.347 36.1961 120.093 35.9615V35.964ZM119.9 36.4523C119.9 36.6869 119.749 36.8464 119.49 36.8948L119.892 37.6443H119.514L119.148 36.9431H118.812V37.6443H118.474V36.0002H119.154C119.657 36.0002 119.903 36.1525 119.903 36.4523H119.9ZM118.81 36.2033V36.7473H119.096C119.405 36.7473 119.551 36.6796 119.551 36.4862C119.551 36.2928 119.405 36.2033 119.088 36.2033H118.81Z" fill="white" fill-opacity="0.5"/>
</g>
<defs>
<clipPath id="clip0_1_7088">
<rect width="120.198" height="40.6126" fill="white" transform="translate(0.5 0.307617)"/>
</clipPath>
</defs>
</svg>
