<?xml version="1.0" encoding="UTF-8"?>
<svg id="Capa_1" data-name="Capa 1" xmlns="http://www.w3.org/2000/svg" viewBox="0 0 5944.37 933.54">
  <defs>
    <style>
      .cls-1 {
        fill: #f9d729;
      }
    </style>
  </defs>
  <path class="cls-1" d="M510.89,638.69H0c4.13-23.96,7.88-46.85,12.05-69.66,19.44-106.54,38.96-213.07,58.52-319.59,6.82-37.12,13.5-74.27,20.99-111.26,2.17-10.73.5-18.5-7.41-26.47-37.63-37.88-36.87-37.95-26.42-90.1C61.03,5.16,67.77-.35,84.88.02c54.81,1.16,109.66.83,164.48.16,14.18-.17,16.41,4.24,13.84,17.37-8.9,45.51-16.63,91.26-25.18,139.03h361.62c-29.77,161.75-59.12,321.17-88.75,482.12ZM175.74,496.93c1.91,1.63,2.32,2.3,2.74,2.3,65.67.45,131.34,1,197.01.8,3.26-.01,8.66-6.2,9.44-10.21,11.1-57.42,21.65-114.95,32.12-172.49,1.22-6.7,1.2-13.63,1.81-21.12-4.47-.64-7.1-1.34-9.73-1.35-61.37-.08-122.74.15-184.11-.3-11.35-.08-13.63,6.19-15.24,14.97-5.73,31.19-11.85,62.3-17.52,93.49-5.75,31.6-11.14,63.26-16.51,93.9Z"/>
  <path class="cls-1" d="M1677.12,635.25h-132.62c-3.43,0-6.01-3.12-5.39-6.5,6.12-32.97,12.03-64.62,17.84-96.29,13.13-71.58,26.39-143.14,39.2-214.77,4.11-22.97.99-26.22-22.18-26.26-57.59-.09-115.2.5-172.78-.42-14.53-.23-18.91,5.76-21.16,18.33-18.81,105.02-37.85,210-57.42,314.88-.87,4.65-7.88,10.95-11.92,11.03-42.4.8-86.74.17-131.26.01-4.03-.01-7.05-3.7-6.27-7.66,1.01-5.11,1.91-9.77,2.8-14.63,14.2-76.95,28.77-153.83,43-230.77,13.14-71.02,27.37-143.25,39.79-214.39,2.16-12.35,7.85-14.58,20.1-14.54,117.38.45,232.93-.02,350.31.39,83.26.29,134.69,67.83,117.84,149.79-16.08,78.24-28.7,157.19-43.02,235.8-5.34,29.31-11.06,58.56-16.6,87.49-.94,4.94-5.26,8.5-10.28,8.5Z"/>
  <path class="cls-1" d="M2851.58,635.25h-132.62c-3.43,0-6.01-3.12-5.39-6.5,6.12-32.97,12.03-64.62,17.84-96.29,13.13-71.58,26.39-143.14,39.2-214.77,4.11-22.97.99-26.22-22.18-26.26-57.59-.09-115.2.5-172.78-.42-14.53-.23-18.91,5.76-21.16,18.33-18.81,105.02-37.85,210-57.42,314.88-.87,4.65-7.88,10.95-11.92,11.03-42.4.8-86.74.17-131.26.01-4.03-.01-7.05-3.7-6.27-7.66,1.01-5.11,1.91-9.77,2.8-14.63,14.2-76.95,28.77-153.83,43-230.77,13.14-71.02,26.27-142.04,38.69-213.18,2.16-12.35,7.12-15.79,19.37-15.74,117.38.45,234.77-.02,352.15.39,83.26.29,134.69,67.83,117.84,149.79-16.08,78.24-28.7,157.19-43.02,235.8-5.34,29.31-11.06,58.56-16.6,87.49-.94,4.94-5.26,8.5-10.28,8.5Z"/>
  <path class="cls-1" d="M3632.47,164.18c6.79,7.35,10.18,16.51,10.18,27.48s-3.4,20.05-10.18,27.43c-6.79,7.39-16.09,11.08-27.91,11.08s-21.03-3.69-27.85-11.08c-6.83-7.39-10.23-16.53-10.23-27.43s3.41-20.13,10.23-27.48c6.82-7.35,16.11-11.03,27.85-11.03s21.12,3.68,27.91,11.03ZM3574.5,191.46c0,9.07,2.69,16.58,8.07,22.53,5.38,5.94,12.71,8.92,22,8.92s16.63-2.97,22.05-8.92c5.42-5.94,8.13-13.42,8.13-22.42s-2.69-16.58-8.07-22.53c-5.38-5.94-12.75-8.91-22.1-8.91s-16.7,2.97-22.05,8.91c-5.35,5.95-8.02,13.49-8.02,22.63v-.21ZM3611.85,196.31c3.59-.63,6.3-2.3,8.13-5.01,1.83-2.71,2.58-5.54,2.27-8.49-.32-2.95-1.72-5.61-4.22-7.97s-5.79-3.54-9.86-3.54h-18.15v39.57h7.28v-13.72h6.86l10.97,13.72h8.02v-1.48l-11.29-13.19v.11ZM3608.16,178.16c1.69,0,3.11.44,4.27,1.32,1.16.88,1.87,1.95,2.11,3.22.24,1.27.23,2.52-.05,3.75-.28,1.23-1,2.29-2.16,3.17-1.16.88-2.62,1.32-4.38,1.32h-10.66v-12.77h10.87Z"/>
  <path class="cls-1" d="M1100.93,625.34c13.07-70.07,25.66-139.87,38.61-209.96,15.05-81.45,29.77-162.96,44.91-244.39,3.18-17.11,3.03-17.91-14.79-17.92-79.27-.02-158.55,0-237.82,0-79.27,0-55.97-.33-135.24-.33-116.55,0-143.41,123.54-145.69,136.3-12.09,67.81-3.11,15.66-15.09,83.89-14.05,80.01-28.85,167.77-42.2,249.11-1.39,8.47,1.65,13.22,6.61,13.22,61.09,0,175.77-.04,278.55.06,6.26,0,11.63-4.45,12.79-10.6l22.41-118.74c.83-4.41-2.54-8.5-7.03-8.51-41.49-.15-82.98-.08-124.47.36-13.14.14-15.85-4.81-13.71-16.21,7.3-38.82,14.38-77.68,21.49-116.54,3.72-20.36,8.08-40.65,10.65-61.15,1.27-10.15,5.41-12.93,14.81-12.83,30.45.34,60.91.13,91.37.13,30.46-.01,60.92.27,91.37-.16,11.05-.16,14.1,2.79,11.86,14.4-5.5,28.48-10.8,57-16.02,85.53l.18.03-40.78,235.55c-.8,4.6,2.75,8.8,7.41,8.8,47.4.01,97.86-.11,128.23-.11,4.96,0,9.45,1.45,11.57-9.91Z"/>
  <path class="cls-1" d="M2272.04,625.34c13.07-70.07,25.66-139.87,38.61-209.96,15.05-81.45,29.77-162.96,44.91-244.39,3.18-17.11,3.03-17.91-14.79-17.92-79.27-.02-158.55,0-237.82,0-79.27,0-55.97-.33-135.24-.33-116.55,0-143.41,123.54-145.69,136.3-12.09,67.81-3.11,15.66-15.09,83.89-14.05,80.01-28.85,167.77-42.2,249.11-1.39,8.47,1.65,13.22,6.61,13.22,61.09,0,175.77-.04,278.55.06,6.26,0,11.63-4.45,12.79-10.6l22.41-118.74c.83-4.41-2.54-8.5-7.03-8.51-41.49-.15-82.98-.08-124.47.36-13.14.14-15.85-4.81-13.71-16.21,7.3-38.82,14.38-77.68,21.49-116.54,3.72-20.36,8.08-40.65,10.65-61.15,1.27-10.15,5.41-12.93,14.81-12.83,30.45.34,60.91.13,91.37.13,30.46-.01,60.92.27,91.37-.16,11.05-.16,14.1,2.79,11.86,14.4-5.5,28.48-10.8,57-16.02,85.53l.18.03-40.78,235.55c-.8,4.6,2.75,8.8,7.41,8.8,47.4.01,97.86-.11,128.23-.11,4.96,0,9.45,1.45,11.57-9.91Z"/>
  <path class="cls-1" d="M3451.53,625.34c13.07-70.07,25.66-139.87,38.61-209.96,15.05-81.45,29.77-162.96,44.91-244.39,3.18-17.11,3.03-17.91-14.79-17.92-79.27-.02-158.55,0-237.82,0-79.27,0-55.97-.33-135.24-.33-116.55,0-143.41,123.54-145.69,136.3-12.09,67.81-3.11,15.66-15.09,83.89-14.05,80.01-28.85,167.77-42.2,249.11-1.39,8.47,1.65,13.22,6.61,13.22,61.09,0,175.77-.04,278.55.06,6.26,0,11.63-4.45,12.79-10.6l22.41-118.74c.83-4.41-2.54-8.5-7.03-8.51-41.49-.15-82.98-.08-124.47.36-13.14.14-15.85-4.81-13.71-16.21,7.3-38.82,14.38-77.68,21.49-116.54,3.72-20.36,8.08-40.65,10.65-61.15,1.27-10.15,5.41-12.93,14.81-12.83,30.45.34,60.91.13,91.37.13,30.46-.01,60.92.27,91.37-.16,11.05-.16,14.1,2.79,11.86,14.4-5.5,28.48-10.8,57-16.02,85.53l.18.03-40.78,235.55c-.8,4.6,2.75,8.8,7.41,8.8,47.4.01,97.86-.11,128.23-.11,4.96,0,9.45,1.45,11.57-9.91Z"/>
</svg>