<?xml version="1.0" encoding="UTF-8"?>
<svg id="Layer_1" xmlns="http://www.w3.org/2000/svg" version="1.1" viewBox="0 0 1920 592">
  <!-- Generator: Adobe Illustrator 29.3.0, SVG Export Plug-In . SVG Version: 2.1.0 Build 146)  -->
  <defs>
    <style>
      .st0 {
        fill: #4d4d4d;
      }

      .st1 {
        fill: #f9d729;
      }
    </style>
  </defs>
  <rect class="st0" x="-1.5" width="1923" height="592"/>
  <g>
    <path class="st1" d="M486.26,391.47h-183.07c1.48-8.59,2.83-16.79,4.32-24.96,6.97-38.18,13.96-76.35,20.97-114.52,2.44-13.3,4.84-26.61,7.52-39.87.78-3.84.18-6.63-2.66-9.48-13.49-13.57-13.21-13.6-9.47-32.29,1.18-5.9,3.6-7.87,9.73-7.74,19.64.42,39.3.3,58.94.06,5.08-.06,5.88,1.52,4.96,6.22-3.19,16.31-5.96,32.7-9.02,49.82h129.58c-10.67,57.96-21.19,115.09-31.8,172.76ZM366.16,340.67c.68.58.83.82.98.82,23.53.16,47.06.36,70.6.29,1.17,0,3.1-2.22,3.38-3.66,3.98-20.58,7.76-41.19,11.51-61.81.44-2.4.43-4.88.65-7.57-1.6-.23-2.54-.48-3.49-.48-21.99-.03-43.98.05-65.97-.11-4.07-.03-4.88,2.22-5.46,5.36-2.05,11.17-4.25,22.32-6.28,33.5-2.06,11.32-3.99,22.67-5.92,33.65Z"/>
    <path class="st1" d="M904.17,390.23h-47.52c-1.23,0-2.15-1.12-1.93-2.33,2.19-11.82,4.31-23.16,6.39-34.51,4.71-25.65,9.46-51.29,14.05-76.96,1.47-8.23.35-9.4-7.95-9.41-20.64-.03-41.28.18-61.91-.15-5.21-.08-6.78,2.06-7.58,6.57-6.74,37.63-13.56,75.25-20.58,112.84-.31,1.67-2.82,3.92-4.27,3.95-15.19.29-31.08.06-47.04,0-1.45,0-2.53-1.33-2.25-2.74.36-1.83.68-3.5,1-5.24,5.09-27.57,10.31-55.12,15.41-82.69,4.71-25.45,9.81-51.33,14.26-76.83.77-4.42,2.81-5.23,7.2-5.21,42.06.16,83.47,0,125.53.14,29.84.1,48.26,24.3,42.23,53.68-5.76,28.04-10.29,56.33-15.42,84.5-1.91,10.5-3.96,20.98-5.95,31.35-.34,1.77-1.88,3.05-3.69,3.05Z"/>
    <path class="st1" d="M1325.02,390.23h-47.52c-1.23,0-2.15-1.12-1.93-2.33,2.19-11.82,4.31-23.16,6.39-34.51,4.71-25.65,9.46-51.29,14.05-76.96,1.47-8.23.35-9.4-7.95-9.41-20.64-.03-41.28.18-61.91-.15-5.21-.08-6.78,2.06-7.58,6.57-6.74,37.63-13.56,75.25-20.58,112.84-.31,1.67-2.82,3.92-4.27,3.95-15.19.29-31.08.06-47.04,0-1.45,0-2.53-1.33-2.25-2.74.36-1.83.68-3.5,1-5.24,5.09-27.57,10.31-55.12,15.41-82.69,4.71-25.45,9.41-50.9,13.86-76.39.77-4.42,2.55-5.66,6.94-5.64,42.06.16,84.13,0,126.19.14,29.84.1,48.26,24.3,42.23,53.68-5.76,28.04-10.29,56.33-15.42,84.5-1.91,10.5-3.96,20.98-5.95,31.35-.34,1.77-1.88,3.05-3.69,3.05Z"/>
    <path class="st1" d="M1604.85,221.43c2.43,2.63,3.65,5.92,3.65,9.85s-1.22,7.18-3.65,9.83c-2.43,2.65-5.77,3.97-10,3.97s-7.54-1.32-9.98-3.97c-2.45-2.65-3.67-5.92-3.67-9.83s1.22-7.21,3.67-9.85c2.44-2.63,5.77-3.95,9.98-3.95s7.57,1.32,10,3.95ZM1584.08,231.2c0,3.25.96,5.94,2.89,8.07,1.93,2.13,4.55,3.2,7.88,3.2s5.96-1.07,7.9-3.2c1.94-2.13,2.91-4.81,2.91-8.03s-.96-5.94-2.89-8.07c-1.93-2.13-4.57-3.19-7.92-3.19s-5.99,1.06-7.9,3.19c-1.92,2.13-2.87,4.83-2.87,8.11v-.08ZM1597.46,232.94c1.29-.23,2.26-.83,2.91-1.8.66-.97.93-1.98.81-3.04-.11-1.06-.62-2.01-1.51-2.85s-2.07-1.27-3.53-1.27h-6.5v14.18h2.61v-4.91h2.46l3.93,4.91h2.87v-.53l-4.05-4.73v.04ZM1596.14,226.44c.6,0,1.12.16,1.53.47.42.32.67.7.76,1.15s.08.9-.02,1.34c-.1.44-.36.82-.78,1.13-.42.32-.94.47-1.57.47h-3.82v-4.57h3.89Z"/>
    <path class="st1" d="M697.7,386.68c4.68-25.11,9.19-50.12,13.84-75.24,5.39-29.19,10.67-58.39,16.09-87.57,1.14-6.13,1.09-6.42-5.3-6.42-28.41,0-56.81,0-85.22,0-28.41,0-20.06-.12-48.46-.12-41.76,0-51.39,44.27-52.21,48.84-4.33,24.3-1.11,5.61-5.41,30.06-5.04,28.67-10.34,60.12-15.12,89.27-.5,3.04.59,4.74,2.37,4.74,21.89,0,62.98-.01,99.82.02,2.24,0,4.17-1.59,4.58-3.8l8.03-42.55c.3-1.58-.91-3.04-2.52-3.05-14.87-.05-29.74-.03-44.6.13-4.71.05-5.68-1.72-4.91-5.81,2.61-13.91,5.15-27.84,7.7-41.76,1.33-7.3,2.9-14.57,3.82-21.91.46-3.64,1.94-4.63,5.31-4.6,10.91.12,21.83.05,32.74.05,10.91,0,21.83.1,32.74-.06,3.96-.06,5.05,1,4.25,5.16-1.97,10.21-3.87,20.43-5.74,30.65h.06s-14.61,84.42-14.61,84.42c-.29,1.65.99,3.15,2.66,3.15,16.98,0,35.07-.04,45.95-.04,1.78,0,3.38.52,4.15-3.55Z"/>
    <path class="st1" d="M1117.35,386.68c4.68-25.11,9.19-50.12,13.84-75.24,5.39-29.19,10.67-58.39,16.09-87.57,1.14-6.13,1.09-6.42-5.3-6.42-28.41,0-56.81,0-85.22,0-28.41,0-20.06-.12-48.46-.12-41.76,0-51.39,44.27-52.21,48.84-4.33,24.3-1.11,5.61-5.41,30.06-5.04,28.67-10.34,60.12-15.12,89.27-.5,3.04.59,4.74,2.37,4.74,21.89,0,62.98-.01,99.82.02,2.24,0,4.17-1.59,4.58-3.8l8.03-42.55c.3-1.58-.91-3.04-2.52-3.05-14.87-.05-29.74-.03-44.6.13-4.71.05-5.68-1.72-4.91-5.81,2.61-13.91,5.15-27.84,7.7-41.76,1.33-7.3,2.9-14.57,3.82-21.91.46-3.64,1.94-4.63,5.31-4.6,10.91.12,21.83.05,32.74.05,10.91,0,21.83.1,32.74-.06,3.96-.06,5.05,1,4.25,5.16-1.97,10.21-3.87,20.43-5.74,30.65h.06s-14.61,84.42-14.61,84.42c-.29,1.65.99,3.15,2.66,3.15,16.98,0,35.07-.04,45.95-.04,1.78,0,3.38.52,4.15-3.55Z"/>
    <path class="st1" d="M1540.01,386.68c4.68-25.11,9.19-50.12,13.84-75.24,5.39-29.19,10.67-58.39,16.09-87.57,1.14-6.13,1.09-6.42-5.3-6.42-28.41,0-56.81,0-85.22,0-28.41,0-20.06-.12-48.46-.12-41.76,0-51.39,44.27-52.21,48.84-4.33,24.3-1.11,5.61-5.41,30.06-5.04,28.67-10.34,60.12-15.12,89.27-.5,3.04.59,4.74,2.37,4.74,21.89,0,62.98-.01,99.82.02,2.24,0,4.17-1.59,4.58-3.8l8.03-42.55c.3-1.58-.91-3.04-2.52-3.05-14.87-.05-29.74-.03-44.6.13-4.71.05-5.68-1.72-4.91-5.81,2.61-13.91,5.15-27.84,7.7-41.76,1.33-7.3,2.9-14.57,3.82-21.91.46-3.64,1.94-4.63,5.31-4.6,10.91.12,21.83.05,32.74.05,10.91,0,21.83.1,32.74-.06,3.96-.06,5.05,1,4.25,5.16-1.97,10.21-3.87,20.43-5.74,30.65h.06s-14.61,84.42-14.61,84.42c-.29,1.65.99,3.15,2.66,3.15,16.98,0,35.07-.04,45.95-.04,1.78,0,3.38.52,4.15-3.55Z"/>
  </g>
</svg>